<svg version="1.1" id="Layer_1" xmlns="http://www.w3.org/2000/svg" xmlns:xlink="http://www.w3.org/1999/xlink" x="0px" y="0px"
	 width="100%" viewBox="0 0 187 121" enable-background="new 0 0 187 121" xml:space="preserve">
<path fill="#95662D" opacity="1.000000" stroke="none" 
	d="
M182.000000,1.000000 
	C183.992462,1.000000 185.984940,1.000000 187.983063,1.000000 
	C187.988708,41.333332 187.988708,81.666664 187.984406,122.000000 
	C186.319733,122.000000 184.659332,122.000000 182.500153,121.531342 
	C182.000916,81.041786 182.000458,41.020893 182.000000,1.000000 
z"/>
<path fill="#A07438" opacity="1.000000" stroke="none" 
	d="
M178.000000,122.000000 
	C176.611008,122.000000 175.222000,122.000000 173.416595,121.531342 
	C173.000107,81.041786 173.000061,41.020893 173.000000,1.000000 
	C174.388992,1.000000 175.778000,1.000000 177.583313,1.468657 
	C177.999756,41.958210 177.999878,81.979103 178.000000,122.000000 
z"/>
<path fill="#97682E" opacity="1.000000" stroke="none" 
	d="
M5.000000,1.000000 
	C6.388998,1.000000 7.777995,1.000000 9.583330,1.468657 
	C9.999652,39.228779 10.019348,76.520271 9.954454,113.811630 
	C9.950211,116.250488 9.297912,118.688210 8.623241,121.062439 
	C7.201082,120.326195 6.102740,119.653976 5.003289,118.514252 
	C5.001453,79.031158 5.000727,40.015579 5.000000,1.000000 
z"/>
<path fill="#F2E898" opacity="1.000000" stroke="none" 
	d="
M90.000000,1.000000 
	C93.362099,1.000000 96.724205,1.000000 100.447006,1.240353 
	C100.953903,17.514473 101.100098,33.548237 101.015518,49.803726 
	C97.671516,54.333321 94.558289,58.641193 91.316849,62.483059 
	C90.792267,59.418785 90.067322,56.822392 90.052513,54.221958 
	C89.951523,36.481781 89.999847,18.740753 90.000000,1.000000 
z"/>
<path fill="#A47B3E" opacity="1.000000" stroke="none" 
	d="
M172.600006,1.000000 
	C173.000061,41.020893 173.000107,81.041786 173.000092,121.531342 
	C171.611115,122.000000 170.222214,122.000000 168.416962,121.531357 
	C167.964523,113.628967 167.928436,106.195221 167.864685,98.475021 
	C167.560028,97.458221 167.283020,96.727882 167.382843,95.871254 
	C168.173111,93.902428 168.942215,92.060783 168.946884,90.217209 
	C169.022049,60.478287 169.000000,30.739115 169.000000,1.000000 
	C170.066666,1.000000 171.133347,1.000000 172.600006,1.000000 
z"/>
<path fill="#9C6E34" opacity="1.000000" stroke="none" 
	d="
M8.947058,121.126465 
	C9.297912,118.688210 9.950211,116.250488 9.954454,113.811630 
	C10.019348,76.520271 9.999652,39.228779 9.999834,1.468657 
	C11.066669,1.000000 12.133339,1.000000 13.599989,1.468657 
	C13.999979,41.958210 13.999990,81.979103 14.000000,122.000000 
	C12.611111,122.000000 11.222222,122.000000 9.399685,121.781845 
	C8.966036,121.563690 8.947058,121.126465 8.947058,121.126465 
z"/>
<path fill="#A07438" opacity="1.000000" stroke="none" 
	d="
M14.399996,122.000000 
	C13.999990,81.979103 13.999979,41.958210 13.999985,1.468657 
	C15.066669,1.000000 16.133339,1.000000 17.600000,1.468657 
	C17.999994,41.958210 17.999998,81.979103 18.000000,122.000000 
	C16.933331,122.000000 15.866661,122.000000 14.399996,122.000000 
z"/>
<path fill="#A47A3E" opacity="1.000000" stroke="none" 
	d="
M18.399996,122.000000 
	C17.999998,81.979103 17.999994,41.958210 17.999996,1.468657 
	C19.066669,1.000000 20.133339,1.000000 21.599888,1.468657 
	C21.999846,41.958210 21.999924,81.979103 22.000000,122.000000 
	C20.933331,122.000000 19.866661,122.000000 18.399996,122.000000 
z"/>
<path fill="#9B6D32" opacity="1.000000" stroke="none" 
	d="
M178.399994,122.000000 
	C177.999878,81.979103 177.999756,41.958210 177.999817,1.468657 
	C179.066666,1.000000 180.133347,1.000000 181.600006,1.000000 
	C182.000458,41.020893 182.000916,81.041786 182.000687,121.531342 
	C180.933334,122.000000 179.866653,122.000000 178.399994,122.000000 
z"/>
<path fill="#BB9A58" opacity="1.000000" stroke="none" 
	d="
M147.000000,1.000000 
	C148.714371,1.000000 150.428757,1.000000 152.571320,1.468657 
	C152.999420,26.935976 153.050247,51.934933 152.904739,76.932747 
	C152.892807,78.981339 151.543854,81.022148 150.573181,82.860916 
	C149.167770,80.901802 148.005325,79.148338 146.881439,76.902817 
	C146.946655,51.273838 146.973328,26.136919 147.000000,1.000000 
z"/>
<path fill="#B28D4D" opacity="1.000000" stroke="none" 
	d="
M30.000000,1.000000 
	C31.388998,1.000000 32.777996,1.000000 34.583466,1.468657 
	C35.005730,33.238056 35.011524,64.538795 34.601135,95.886612 
	C32.795891,95.850716 31.406828,95.767738 30.013683,95.235886 
	C30.006401,63.524670 30.003201,32.262333 30.000000,1.000000 
z"/>
<path fill="#B79553" opacity="1.000000" stroke="none" 
	d="
M35.017319,95.839539 
	C35.011524,64.538795 35.005730,33.238056 34.999969,1.468657 
	C36.388889,1.000000 37.777779,1.000000 39.583241,1.468657 
	C39.999794,28.664013 39.970196,55.390808 40.059063,82.117210 
	C40.065769,84.133644 40.915993,86.147270 41.234177,88.478638 
	C39.068604,91.143227 37.042961,93.491379 35.017319,95.839539 
z"/>
<path fill="#91622B" opacity="1.000000" stroke="none" 
	d="
M4.500000,1.000000 
	C5.000727,40.015579 5.001453,79.031158 4.717928,118.355743 
	C3.289116,117.109840 2.144557,115.554924 0.999998,114.000000 
	C1.000000,76.333336 1.000000,38.666664 1.006445,0.999999 
	C2.008594,1.000000 3.004297,1.000000 4.500000,1.000000 
z"/>
<path fill="#BC9C59" opacity="1.000000" stroke="none" 
	d="
M41.374107,88.162201 
	C40.915993,86.147270 40.065769,84.133644 40.059063,82.117210 
	C39.970196,55.390808 39.999794,28.664013 39.999908,1.468657 
	C41.388889,1.000000 42.777779,1.000000 44.583046,1.468657 
	C44.999348,26.700855 44.979008,51.464443 45.038738,76.227837 
	C45.043377,78.149628 45.609673,80.070045 45.838844,82.309494 
	C44.299877,84.472649 42.836990,86.317421 41.374107,88.162201 
z"/>
<path fill="#EBDE90" opacity="1.000000" stroke="none" 
	d="
M89.562500,1.000000 
	C89.999847,18.740753 89.951523,36.481781 90.052513,54.221958 
	C90.067322,56.822392 90.792267,59.418785 91.177307,62.740620 
	C90.226784,63.421303 88.787369,63.752613 88.429802,63.274624 
	C86.159286,60.239498 84.127754,57.025597 82.092072,53.467659 
	C82.444565,50.782173 82.952202,48.500759 82.963104,46.216972 
	C83.035027,31.144934 83.000107,16.072384 83.000000,1.000000 
	C85.041664,1.000000 87.083336,1.000000 89.562500,1.000000 
z"/>
<path fill="#A88143" opacity="1.000000" stroke="none" 
	d="
M168.600006,1.000000 
	C169.000000,30.739115 169.022049,60.478287 168.946884,90.217209 
	C168.942215,92.060783 168.173111,93.902428 167.042633,95.848633 
	C165.878525,95.871513 165.431473,95.790733 164.988159,95.259499 
	C164.994598,63.539356 164.997299,32.269680 165.000000,1.000000 
	C166.066666,1.000000 167.133347,1.000000 168.600006,1.000000 
z"/>
<path fill="#AD8747" opacity="1.000000" stroke="none" 
	d="
M164.600006,1.000000 
	C164.997299,32.269680 164.994598,63.539356 164.590668,95.324829 
	C163.120636,95.791992 162.051865,95.743378 160.987076,95.245247 
	C160.994049,63.530491 160.997025,32.265247 161.000000,1.000000 
	C162.066666,1.000000 163.133347,1.000000 164.600006,1.000000 
z"/>
<path fill="#AD8747" opacity="1.000000" stroke="none" 
	d="
M29.600004,1.000000 
	C30.003201,32.262333 30.006401,63.524670 29.641157,95.308334 
	C28.519098,95.788322 27.765482,95.746964 27.008183,95.290649 
	C26.669867,87.747055 26.082340,80.619675 26.046667,73.489540 
	C25.925779,49.326885 26.000204,25.163256 26.000000,1.000000 
	C27.066669,1.000000 28.133339,1.000000 29.600004,1.000000 
z"/>
<path fill="#B18D4C" opacity="1.000000" stroke="none" 
	d="
M160.600006,1.000000 
	C160.997025,32.265247 160.994049,63.530491 160.676285,95.182014 
	C158.897888,93.754173 157.434296,91.940056 156.134399,89.733162 
	C156.532074,87.209435 156.966095,85.078812 156.969681,82.947472 
	C157.015610,55.631710 157.000000,28.315842 157.000000,1.000000 
	C158.066666,1.000000 159.133347,1.000000 160.600006,1.000000 
z"/>
<path fill="#CBB16B" opacity="1.000000" stroke="none" 
	d="
M132.000000,1.000000 
	C133.388992,1.000000 134.778000,1.000000 136.583496,1.468657 
	C137.000000,24.746035 137.026550,47.554840 136.951294,70.363312 
	C136.945038,72.257484 136.250595,74.149384 135.590973,75.874252 
	C133.554947,73.135536 131.803833,70.564896 130.425385,67.863556 
	C131.198837,65.886658 131.940613,64.041855 131.948151,62.194065 
	C132.031189,41.796310 132.000153,21.398092 132.000000,1.000000 
z"/>
<path fill="#C0A25E" opacity="1.000000" stroke="none" 
	d="
M146.583344,1.000000 
	C146.973328,26.136919 146.946655,51.273838 146.620514,76.681763 
	C144.880753,75.307144 143.440460,73.661522 142.000076,71.546249 
	C141.999985,47.717731 142.000000,24.358866 142.000000,1.000000 
	C143.388885,1.000000 144.777786,1.000000 146.583344,1.000000 
z"/>
<path fill="#C6AA65" opacity="1.000000" stroke="none" 
	d="
M141.583344,1.000000 
	C142.000000,24.358866 141.999985,47.717731 141.662994,71.610687 
	C140.482483,73.258049 139.793350,74.561607 138.740005,75.416252 
	C138.062195,75.966209 136.849075,75.856415 135.875885,76.042336 
	C136.250595,74.149384 136.945038,72.257484 136.951294,70.363312 
	C137.026550,47.554840 137.000000,24.746035 137.000000,1.468657 
	C138.388885,1.000000 139.777786,1.000000 141.583344,1.000000 
z"/>
<path fill="#B59252" opacity="1.000000" stroke="none" 
	d="
M156.600006,1.000000 
	C157.000000,28.315842 157.015610,55.631710 156.969681,82.947472 
	C156.966095,85.078812 156.532074,87.209435 155.871307,89.523499 
	C153.901718,87.493263 152.358948,85.279922 150.816162,83.066574 
	C151.543854,81.022148 152.892807,78.981339 152.904739,76.932747 
	C153.050247,51.934933 152.999420,26.935976 152.999756,1.468657 
	C154.066666,1.000000 155.133347,1.000000 156.600006,1.000000 
z"/>
<path fill="#D0B971" opacity="1.000000" stroke="none" 
	d="
M131.583344,1.000000 
	C132.000153,21.398092 132.031189,41.796310 131.948151,62.194065 
	C131.940613,64.041855 131.198837,65.886658 130.187210,67.640594 
	C128.535706,66.040047 127.495033,64.531746 126.572098,62.501659 
	C126.793236,41.653252 126.896622,21.326626 127.000000,1.000000 
	C128.388885,1.000000 129.777786,1.000000 131.583344,1.000000 
z"/>
<path fill="#C1A35E" opacity="1.000000" stroke="none" 
	d="
M45.914921,81.991104 
	C45.609673,80.070045 45.043377,78.149628 45.038738,76.227837 
	C44.979008,51.464443 44.999348,26.700855 44.999714,1.468657 
	C46.066669,1.000000 47.133339,1.000000 48.599792,1.468657 
	C49.089886,27.152521 49.180199,52.367725 49.171661,77.857513 
	C48.020176,79.418434 46.967548,80.704765 45.914921,81.991104 
z"/>
<path fill="#E4D488" opacity="1.000000" stroke="none" 
	d="
M82.571533,1.000000 
	C83.000107,16.072384 83.035027,31.144934 82.963104,46.216972 
	C82.952202,48.500759 82.444565,50.782173 81.736328,53.465309 
	C80.212654,54.277794 79.119347,54.689651 77.860931,54.710926 
	C77.463898,52.357368 77.037567,50.395065 77.030754,48.431309 
	C76.975868,32.621029 77.000008,16.810472 77.000000,1.000000 
	C78.714355,1.000000 80.428719,1.000000 82.571533,1.000000 
z"/>
<path fill="#D1B971" opacity="1.000000" stroke="none" 
	d="
M60.000000,1.000000 
	C61.066788,1.000000 62.133575,1.000000 63.600090,1.468657 
	C63.999825,23.141340 63.950722,44.345684 64.087067,65.548828 
	C64.098785,67.371193 65.340263,69.185661 65.894043,71.316437 
	C64.466003,73.321754 63.279808,75.143753 61.757900,76.619553 
	C61.358818,77.006531 59.918301,76.319550 59.123703,75.734299 
	C59.527470,73.212646 59.964153,71.082916 59.968838,68.952240 
	C60.018661,46.301582 59.999901,23.650770 60.000000,1.000000 
z"/>
<path fill="#CCB36C" opacity="1.000000" stroke="none" 
	d="
M59.600006,1.000000 
	C59.999901,23.650770 60.018661,46.301582 59.968838,68.952240 
	C59.964153,71.082916 59.527470,73.212646 58.855412,75.533867 
	C57.284225,74.662560 56.148987,73.600197 55.109283,72.159752 
	C55.469826,69.655922 55.959469,67.530777 55.965118,65.404343 
	C56.022141,43.936348 55.999947,22.468145 56.000000,1.000000 
	C57.066669,1.000000 58.133339,1.000000 59.600006,1.000000 
z"/>
<path fill="#DECC81" opacity="1.000000" stroke="none" 
	d="
M76.583336,1.000000 
	C77.000008,16.810472 76.975868,32.621029 77.030754,48.431309 
	C77.037567,50.395065 77.463898,52.357368 77.788300,55.037411 
	C76.361443,57.736847 74.842140,59.719215 73.140244,61.273098 
	C72.638458,58.562351 72.052376,56.281254 72.042435,53.997643 
	C71.965538,36.332031 72.000015,18.665941 72.000000,1.000000 
	C73.388893,1.000000 74.777779,1.000000 76.583336,1.000000 
z"/>
<path fill="#A77F43" opacity="1.000000" stroke="none" 
	d="
M22.399996,122.000000 
	C21.999924,81.979103 21.999846,41.958210 21.999886,1.468657 
	C22.444445,1.000000 22.888889,1.000000 23.666668,1.468657 
	C24.000006,30.623682 23.974155,59.310108 24.043604,87.996307 
	C24.049923,90.607117 24.668015,93.216446 24.758484,96.007095 
	C25.016548,97.221092 25.518147,98.254471 26.014956,99.738396 
	C26.006779,107.459297 26.003389,114.729652 26.000000,122.000000 
	C24.933331,122.000000 23.866661,122.000000 22.399996,122.000000 
z"/>
<path fill="#C9AE67" opacity="1.000000" stroke="none" 
	d="
M55.600006,1.000000 
	C55.999947,22.468145 56.022141,43.936348 55.965118,65.404343 
	C55.959469,67.530777 55.469826,69.655922 54.768578,72.211884 
	C53.884209,72.740334 53.436073,72.838562 52.919281,72.528572 
	C52.567188,69.832756 52.044308,67.545860 52.037582,65.257454 
	C51.974628,43.838451 52.000107,22.419188 52.000000,1.000000 
	C53.066669,1.000000 54.133339,1.000000 55.600006,1.000000 
z"/>
<path fill="#D5BF76" opacity="1.000000" stroke="none" 
	d="
M66.010475,71.003792 
	C65.340263,69.185661 64.098785,67.371193 64.087067,65.548828 
	C63.950722,44.345684 63.999825,23.141340 63.999908,1.468657 
	C65.066673,1.000000 66.133339,1.000000 67.599884,1.468657 
	C67.999756,21.436819 67.947891,40.936687 68.083641,60.435246 
	C68.096573,62.292007 69.282784,64.140610 69.820877,66.297607 
	C68.481789,68.069412 67.246132,69.536606 66.010475,71.003792 
z"/>
<path fill="#ECE092" opacity="1.000000" stroke="none" 
	d="
M101.246292,49.582005 
	C101.100098,33.548237 100.953903,17.514473 100.903854,1.240353 
	C102.388893,1.000000 103.777779,1.000000 105.583420,1.468605 
	C106.000221,6.710813 105.846565,11.491502 106.066139,16.254984 
	C106.173454,18.583109 106.975555,20.879208 107.359955,23.634663 
	C107.206642,27.238466 106.823433,30.435133 107.175987,33.548481 
	C107.904480,39.981564 106.102760,45.301701 101.246292,49.582005 
z"/>
<path fill="#D9C57B" opacity="1.000000" stroke="none" 
	d="
M69.924301,65.992996 
	C69.282784,64.140610 68.096573,62.292007 68.083641,60.435246 
	C67.947891,40.936687 67.999756,21.436819 67.999878,1.468657 
	C69.066673,1.000000 70.133339,1.000000 71.600006,1.000000 
	C72.000015,18.665941 71.965538,36.332031 72.042435,53.997643 
	C72.052376,56.281254 72.638458,58.562351 73.024658,61.541180 
	C72.035873,63.489494 70.980087,64.741249 69.924301,65.992996 
z"/>
<path fill="#D7C37B" opacity="1.000000" stroke="none" 
	d="
M120.000000,1.000000 
	C121.066788,1.000000 122.133575,1.000000 123.600182,1.468657 
	C123.999992,17.769943 124.055260,33.602936 123.950630,49.434872 
	C123.931084,52.392227 123.270523,55.345337 122.636063,58.099400 
	C121.241814,56.272507 120.117279,54.646614 119.011711,52.597664 
	C119.310219,45.620869 119.589760,39.067139 119.909805,32.095673 
	C119.631645,28.674973 119.312988,25.672007 119.083115,22.280872 
	C119.447929,14.928472 119.723969,7.964236 120.000000,1.000000 
z"/>
<path fill="#C5A863" opacity="1.000000" stroke="none" 
	d="
M51.625000,1.000000 
	C52.000107,22.419188 51.974628,43.838451 52.037582,65.257454 
	C52.044308,67.545860 52.567188,69.832756 52.787971,72.828918 
	C51.573715,74.885971 50.422115,76.234451 49.270515,77.582932 
	C49.180199,52.367725 49.089886,27.152521 48.999786,1.468657 
	C49.750000,1.000000 50.500000,1.000000 51.625000,1.000000 
z"/>
<path fill="#F2E898" opacity="1.000000" stroke="none" 
	d="
M101.000000,122.000000 
	C97.969406,122.000000 94.938812,122.000000 91.453659,121.531418 
	C90.999138,115.403122 90.855003,109.737381 91.091476,104.087563 
	C91.158096,102.495743 92.340446,100.950623 93.448952,99.307045 
	C96.254051,99.288963 98.621254,99.347908 100.989410,99.849976 
	C100.993584,107.528732 100.996788,114.764366 101.000000,122.000000 
z"/>
<path fill="#AA8244" opacity="1.000000" stroke="none" 
	d="
M25.002014,95.826462 
	C24.668015,93.216446 24.049923,90.607117 24.043604,87.996307 
	C23.974155,59.310108 24.000006,30.623682 24.000000,1.468657 
	C24.444445,1.000000 24.888889,1.000000 25.666668,1.000000 
	C26.000204,25.163256 25.925779,49.326885 26.046667,73.489540 
	C26.082340,80.619675 26.669867,87.747055 26.676868,95.356537 
	C25.900166,95.833733 25.451090,95.830093 25.002014,95.826462 
z"/>
<path fill="#B89958" opacity="1.000000" stroke="none" 
	d="
M153.000000,122.000000 
	C151.285629,122.000000 149.571243,122.000000 147.429108,121.531395 
	C146.992615,113.809151 146.983902,106.555504 147.281204,99.161499 
	C147.719971,97.968719 147.852722,96.916313 147.989471,95.441406 
	C148.423065,92.623627 148.852676,90.228348 149.545731,88.031837 
	C152.623123,91.322838 155.344711,94.442146 152.986572,99.517441 
	C152.994217,107.321846 152.997116,114.660927 153.000000,122.000000 
z"/>
<path fill="#D5BF76" opacity="1.000000" stroke="none" 
	d="
M122.905785,58.300400 
	C123.270523,55.345337 123.931084,52.392227 123.950630,49.434872 
	C124.055260,33.602936 123.999992,17.769943 124.000000,1.468657 
	C124.750000,1.000000 125.500000,1.000000 126.625000,1.000000 
	C126.896622,21.326626 126.793236,41.653252 126.331818,62.255211 
	C124.951118,61.120499 123.928452,59.710449 122.905785,58.300400 
z"/>
<path fill="#E5D689" opacity="1.000000" stroke="none" 
	d="
M114.000000,122.000000 
	C111.957680,122.000000 109.915367,122.000000 107.436539,121.531403 
	C106.994606,113.843636 106.989197,106.624466 107.402435,99.318771 
	C110.211449,99.488754 112.601814,99.745247 114.732422,100.325165 
	C114.315102,107.765732 114.157555,114.882866 114.000000,122.000000 
z"/>
<path fill="#C2A45F" opacity="1.000000" stroke="none" 
	d="
M51.000000,122.000000 
	C48.957684,122.000000 46.915363,122.000000 44.436188,121.531403 
	C44.009441,113.828056 44.019550,106.593315 44.462563,99.285553 
	C46.937592,99.268188 48.979721,99.323837 51.017048,99.824310 
	C51.008167,107.512749 51.004086,114.756371 51.000000,122.000000 
z"/>
<path fill="#B89857" opacity="1.000000" stroke="none" 
	d="
M44.029663,99.358566 
	C44.019550,106.593315 44.009441,113.828056 43.999664,121.531403 
	C41.958332,122.000000 39.916668,122.000000 37.437363,121.531403 
	C37.007530,113.820145 37.015343,106.577477 37.456841,99.262726 
	C39.936905,99.246613 41.983284,99.302589 44.029663,99.358566 
z"/>
<path fill="#CCB36C" opacity="1.000000" stroke="none" 
	d="
M137.000000,122.000000 
	C134.957687,122.000000 132.915359,122.000000 130.436646,121.531448 
	C129.994827,114.102974 129.989410,107.143051 130.370056,100.098328 
	C132.830612,99.807541 134.905106,99.601562 136.983368,99.839394 
	C136.991409,107.522133 136.995712,114.761070 137.000000,122.000000 
z"/>
<path fill="#ECE092" opacity="1.000000" stroke="none" 
	d="
M106.983780,99.405289 
	C106.989197,106.624466 106.994606,113.843636 107.000015,121.531403 
	C105.285645,122.000000 103.571281,122.000000 101.428459,122.000000 
	C100.996788,114.764366 100.993584,107.528732 101.411270,99.764053 
	C103.549370,99.291771 105.266571,99.348534 106.983780,99.405289 
z"/>
<path fill="#B38F4E" opacity="1.000000" stroke="none" 
	d="
M37.023151,99.334816 
	C37.015343,106.577477 37.007530,113.820145 36.999863,121.531403 
	C35.285641,122.000000 33.571281,122.000000 31.428356,121.531403 
	C31.007284,113.812958 31.014782,106.563126 31.447197,99.244316 
	C33.589123,99.228500 35.306137,99.281662 37.023151,99.334816 
z"/>
<path fill="#DECC81" opacity="1.000000" stroke="none" 
	d="
M77.000000,122.000000 
	C75.285622,122.000000 73.571251,122.000000 71.428467,121.531448 
	C71.004814,114.103500 71.009567,107.144096 71.440216,100.129700 
	C73.581482,100.110832 75.296852,100.146965 77.008797,100.640182 
	C77.003578,108.064850 77.001793,115.032425 77.000000,122.000000 
z"/>
<path fill="#D8C379" opacity="1.000000" stroke="none" 
	d="
M71.014328,100.184692 
	C71.009567,107.144096 71.004814,114.103500 71.000031,121.531448 
	C69.285645,122.000000 67.571281,122.000000 65.428375,121.531448 
	C65.005020,114.103149 65.010208,107.143394 65.441467,100.130020 
	C67.583138,100.112503 69.298729,100.148598 71.014328,100.184692 
z"/>
<path fill="#E4D488" opacity="1.000000" stroke="none" 
	d="
M77.428467,122.000000 
	C77.001793,115.032425 77.003578,108.064850 77.434555,100.583420 
	C79.579262,100.105774 81.294800,100.141983 83.007042,100.635590 
	C83.002502,108.061996 83.001251,115.030998 83.000000,122.000000 
	C81.285645,122.000000 79.571281,122.000000 77.428467,122.000000 
z"/>
<path fill="#D3BD74" opacity="1.000000" stroke="none" 
	d="
M129.983978,100.183121 
	C129.989410,107.143051 129.994827,114.102974 130.000122,121.531448 
	C128.285645,122.000000 126.571281,122.000000 124.428635,121.531448 
	C123.995773,114.102753 123.991203,107.142593 124.412125,100.122772 
	C126.553070,100.103111 128.268524,100.143120 129.983978,100.183121 
z"/>
<path fill="#E7D88B" opacity="1.000000" stroke="none" 
	d="
M107.463181,23.189800 
	C106.975555,20.879208 106.173454,18.583109 106.066139,16.254984 
	C105.846565,11.491502 106.000221,6.710813 106.000092,1.468605 
	C107.714355,1.000000 109.428719,1.000000 111.571259,1.468512 
	C111.995064,8.820435 111.990692,15.703846 111.611328,22.665155 
	C109.978615,22.891970 108.720894,23.040886 107.463181,23.189800 
z"/>
<path fill="#B08A4B" opacity="1.000000" stroke="none" 
	d="
M163.000000,122.000000 
	C161.611008,122.000000 160.222000,122.000000 158.416428,121.531403 
	C157.992844,113.817558 157.985855,106.572327 158.391388,99.249695 
	C160.195145,99.214920 161.586395,99.257545 162.983185,99.749939 
	C162.992493,107.466476 162.996246,114.733238 163.000000,122.000000 
z"/>
<path fill="#B59252" opacity="1.000000" stroke="none" 
	d="
M157.978851,99.327087 
	C157.985855,106.572327 157.992844,113.817558 157.999924,121.531403 
	C156.611115,122.000000 155.222214,122.000000 153.416656,122.000000 
	C152.997116,114.660927 152.994217,107.321846 153.404327,99.526329 
	C155.204498,99.155617 156.591675,99.241356 157.978851,99.327087 
z"/>
<path fill="#C1A35E" opacity="1.000000" stroke="none" 
	d="
M146.975189,99.301865 
	C146.983902,106.555504 146.992615,113.809151 147.000671,121.531395 
	C145.611115,122.000000 144.222214,122.000000 142.416656,121.531403 
	C141.994476,113.834656 141.988937,106.606491 142.393555,99.293716 
	C144.194183,99.240028 145.584686,99.270950 146.975189,99.301865 
z"/>
<path fill="#C6AA65" opacity="1.000000" stroke="none" 
	d="
M141.983414,99.378334 
	C141.988937,106.606491 141.994476,113.834656 142.000000,121.531403 
	C140.611115,122.000000 139.222214,122.000000 137.416656,122.000000 
	C136.995712,114.761070 136.991409,107.522133 137.394318,99.751411 
	C139.195496,99.272522 140.589447,99.325424 141.983414,99.378334 
z"/>
<path fill="#AA8244" opacity="1.000000" stroke="none" 
	d="
M163.416656,122.000000 
	C162.996246,114.733238 162.992493,107.466476 163.391785,99.676834 
	C165.160660,99.023132 166.526505,98.892296 167.892334,98.761467 
	C167.928436,106.195221 167.964523,113.628967 168.000305,121.531357 
	C166.611115,122.000000 165.222214,122.000000 163.416656,122.000000 
z"/>
<path fill="#AD8747" opacity="1.000000" stroke="none" 
	d="
M31.022282,99.313286 
	C31.014782,106.563126 31.007284,113.812958 30.999893,121.531403 
	C29.611111,122.000000 28.222221,122.000000 26.416666,122.000000 
	C26.003389,114.729652 26.006779,107.459297 26.428997,99.673386 
	C28.239311,99.209648 29.630796,99.261467 31.022282,99.313286 
z"/>
<path fill="#C9AE67" opacity="1.000000" stroke="none" 
	d="
M51.416664,122.000000 
	C51.004086,114.756371 51.008167,107.512749 51.429218,99.748138 
	C53.234680,99.281776 54.623177,99.336403 56.009319,99.835129 
	C56.004646,107.519493 56.002323,114.759743 56.000000,122.000000 
	C54.611111,122.000000 53.222221,122.000000 51.416664,122.000000 
z"/>
<path fill="#DECC81" opacity="1.000000" stroke="none" 
	d="
M114.416664,122.000000 
	C114.157555,114.882866 114.315102,107.765732 115.133057,100.332176 
	C116.858818,100.071419 117.924179,100.127083 118.992554,100.639862 
	C118.997040,108.064651 118.998520,115.032326 119.000000,122.000000 
	C117.611107,122.000000 116.222221,122.000000 114.416664,122.000000 
z"/>
<path fill="#D9C57B" opacity="1.000000" stroke="none" 
	d="
M119.416664,122.000000 
	C118.998520,115.032326 118.997040,108.064651 119.406136,100.579819 
	C121.206688,100.102585 122.596657,100.142517 123.986633,100.182442 
	C123.991203,107.142593 123.995773,114.102753 124.000175,121.531448 
	C122.611107,122.000000 121.222221,122.000000 119.416664,122.000000 
z"/>
<path fill="#D1B971" opacity="1.000000" stroke="none" 
	d="
M65.015396,100.183640 
	C65.010208,107.143394 65.005020,114.103149 64.999908,121.531448 
	C63.611111,122.000000 62.222221,122.000000 60.416573,121.531448 
	C60.003269,114.102951 60.006729,107.143005 60.425117,100.128731 
	C62.231831,100.110817 63.623619,100.147232 65.015396,100.183640 
z"/>
<path fill="#ECE092" opacity="1.000000" stroke="none" 
	d="
M93.011047,99.384079 
	C92.340446,100.950623 91.158096,102.495743 91.091476,104.087563 
	C90.855003,109.737381 90.999138,115.403122 90.999550,121.531418 
	C89.933327,122.000000 88.866661,122.000000 87.399788,121.531425 
	C86.662987,114.040817 86.326385,107.018791 86.257462,99.704025 
	C88.687111,99.402222 90.849075,99.393150 93.011047,99.384079 
z"/>
<path fill="#CCB36C" opacity="1.000000" stroke="none" 
	d="
M60.010185,100.183052 
	C60.006729,107.143005 60.003269,114.102951 59.999908,121.531448 
	C58.933331,122.000000 57.866661,122.000000 56.399994,122.000000 
	C56.002323,114.759743 56.004646,107.519493 56.349976,99.781769 
	C57.798714,99.583885 58.904449,99.883469 60.010185,100.183052 
z"/>
<path fill="#E0D085" opacity="1.000000" stroke="none" 
	d="
M111.986313,22.587257 
	C111.990692,15.703846 111.995064,8.820435 111.999718,1.468512 
	C113.066673,1.000000 114.133339,1.000000 115.600006,1.468513 
	C115.997078,8.822418 115.994164,15.707810 115.594902,22.673069 
	C114.127808,22.697710 113.057068,22.642483 111.986313,22.587257 
z"/>
<path fill="#EADC8E" opacity="1.000000" stroke="none" 
	d="
M85.989777,99.996750 
	C86.326385,107.018791 86.662987,114.040817 86.999794,121.531425 
	C85.933327,122.000000 84.866661,122.000000 83.399994,122.000000 
	C83.001251,115.030998 83.002502,108.061996 83.376266,100.577980 
	C84.495789,100.040894 85.242783,100.018822 85.989777,99.996750 
z"/>
<path fill="#DDCA80" opacity="1.000000" stroke="none" 
	d="
M115.991257,22.593204 
	C115.994164,15.707810 115.997078,8.822418 116.000000,1.468513 
	C117.066673,1.000000 118.133339,1.000000 119.600006,1.000000 
	C119.723969,7.964236 119.447929,14.928472 118.708092,22.334921 
	C117.493279,22.715824 116.742271,22.654514 115.991257,22.593204 
z"/>
<path fill="#696763" opacity="1.000000" stroke="none" 
	d="
M0.999998,114.494736 
	C2.144557,115.554924 3.289116,117.109840 4.719037,118.823257 
	C6.102740,119.653976 7.201082,120.326195 8.623241,121.062439 
	C8.947058,121.126465 8.966036,121.563690 8.983018,121.781845 
	C6.417542,122.000000 3.835084,122.000000 1.000000,122.000000 
	C1.000000,119.666077 1.000000,117.327774 0.999998,114.494736 
z"/>
<path fill="#5E5D59" opacity="1.000000" stroke="none" 
	d="
M115.594910,22.673069 
	C116.742271,22.654514 117.493279,22.715824 118.619308,22.723087 
	C119.312988,25.672007 119.631645,28.674973 119.473061,32.201202 
	C116.255928,32.856998 113.516029,32.989536 110.967026,33.112839 
	C108.159599,42.370811 114.529892,47.293583 118.992737,53.020729 
	C120.117279,54.646614 121.241814,56.272507 122.636063,58.099396 
	C123.928452,59.710449 124.951118,61.120499 126.214073,62.776993 
	C127.495033,64.531746 128.535706,66.040047 129.814560,67.771301 
	C131.803833,70.564896 133.554947,73.135536 135.590973,75.874252 
	C136.849075,75.856415 138.062195,75.966209 138.740005,75.416252 
	C139.793350,74.561607 140.482483,73.258049 141.663086,72.080338 
	C143.440460,73.661522 144.880753,75.307144 146.581970,77.173828 
	C148.005325,79.148338 149.167770,80.901802 150.573181,82.860916 
	C152.358948,85.279922 153.901718,87.493263 155.707596,89.916275 
	C157.434296,91.940056 158.897888,93.754173 160.672287,95.631523 
	C162.051865,95.743378 163.120636,95.791992 164.586929,95.775284 
	C165.431473,95.790733 165.878525,95.871513 166.665787,95.974915 
	C167.283020,96.727882 167.560028,97.458221 167.864685,98.475021 
	C166.526505,98.892296 165.160660,99.023132 163.386230,99.227066 
	C161.586395,99.257545 160.195145,99.214920 158.391373,99.249695 
	C156.591675,99.241356 155.204498,99.155617 153.399567,99.060997 
	C155.344711,94.442146 152.623123,91.322838 149.411087,87.716827 
	C146.822266,84.092888 144.631546,80.982727 142.440826,77.872566 
	C141.784821,78.150101 141.128830,78.427635 140.472824,78.705170 
	C140.805511,80.463562 141.194717,82.213661 141.454575,83.982750 
	C141.702881,85.673302 141.816635,87.383636 141.663513,88.998398 
	C139.888214,87.282700 138.438919,85.653885 136.860138,83.717453 
	C134.995636,81.208855 133.260590,79.007851 131.379059,76.486343 
	C128.865021,73.024757 126.497498,69.883682 123.937386,66.471909 
	C122.878746,65.034088 121.782776,63.972439 121.189903,62.680004 
	C119.434700,58.853729 117.172958,57.727501 113.408661,60.924080 
	C111.357246,61.395176 109.669678,61.779129 107.747536,61.875893 
	C106.620308,57.688820 103.876373,54.957710 100.530426,57.453903 
	C96.959122,60.118202 94.731850,64.584076 91.917847,68.263481 
	C92.148270,68.631142 92.378693,68.998802 92.609108,69.366455 
	C97.673027,67.819366 102.945847,65.067978 106.831535,71.514969 
	C107.287918,73.024849 107.586960,74.240250 107.580490,75.513596 
	C106.062485,74.936409 104.849991,74.301270 103.423920,73.359482 
	C100.991211,70.865608 98.692223,70.499626 95.770767,71.987541 
	C94.168121,72.803780 92.055779,72.619240 90.130768,72.532669 
	C88.375641,69.542686 86.663002,66.905991 84.950363,64.269287 
	C84.290100,64.571960 83.629829,64.874626 82.969566,65.177299 
	C84.600967,69.535919 86.232368,73.894547 87.996506,78.557388 
	C89.424332,80.589149 90.792976,82.267212 91.996735,84.056221 
	C93.667107,86.538673 92.501831,87.327721 89.779709,86.883942 
	C88.432777,85.264557 87.282471,83.916473 86.008224,82.274429 
	C84.839317,80.664375 83.794350,79.348282 82.624512,77.669220 
	C81.544418,71.757072 80.589195,66.207893 79.480820,59.769001 
	C77.122200,63.013241 75.376976,65.413780 73.374886,67.997078 
	C72.011200,69.690590 70.904366,71.201332 69.513664,72.905151 
	C66.350868,76.830971 61.922565,80.045616 65.065536,85.800278 
	C65.202034,86.050201 64.391891,86.817154 63.696014,87.213669 
	C61.946014,85.611481 60.522713,84.138885 58.964561,82.367142 
	C57.624668,80.613083 56.419621,79.158173 54.724476,77.111549 
	C52.835274,79.714340 51.355667,81.752815 49.597454,83.986496 
	C46.644199,87.758362 43.969551,91.335030 40.748318,95.642616 
	C44.988518,95.642616 48.027798,95.642616 51.499310,95.705322 
	C53.965309,95.712547 55.999069,95.657082 58.493614,95.680344 
	C68.995613,95.738258 79.036827,95.717438 89.533417,95.737518 
	C93.679695,95.719475 97.370605,95.660522 101.486542,95.687294 
	C103.933372,95.714142 105.955162,95.655281 108.407837,95.682938 
	C110.882187,95.709251 112.925652,95.649055 115.380173,95.674652 
	C117.184464,95.707825 118.577705,95.655212 120.418755,95.688461 
	C123.895592,95.717407 126.924637,95.660500 130.350006,95.693237 
	C132.506027,95.782890 134.265717,95.782890 137.088745,95.782890 
	C135.092468,93.337135 133.684967,91.612717 132.137665,89.573143 
	C128.737625,85.135513 125.477356,81.013023 122.061646,76.584724 
	C119.650620,73.400627 117.395050,70.522339 115.153320,67.340881 
	C115.443581,66.346214 115.719986,65.654724 116.283340,65.150223 
	C118.580475,67.199821 120.590683,69.062431 122.710777,71.197037 
	C124.573799,73.636147 126.326935,75.803261 128.195984,78.284302 
	C130.770584,81.610458 133.229309,84.622688 135.801697,87.923401 
	C137.933441,90.668922 139.951538,93.125984 142.390656,95.674873 
	C144.536285,95.799110 146.260864,95.831505 147.985474,95.863907 
	C147.852722,96.916313 147.719971,97.968719 147.281219,99.161499 
	C145.584686,99.270950 144.194183,99.240028 142.393555,99.293716 
	C140.589447,99.325424 139.195496,99.272522 137.390564,99.307602 
	C134.905106,99.601562 132.830612,99.807541 130.370056,100.098328 
	C128.268524,100.143120 126.553070,100.103111 124.412125,100.122772 
	C122.596657,100.142517 121.206688,100.102585 119.403130,100.122696 
	C117.924179,100.127083 116.858818,100.071419 115.392822,100.008743 
	C112.601814,99.745247 110.211449,99.488754 107.402428,99.318771 
	C105.266571,99.348534 103.549370,99.291771 101.410309,99.320938 
	C98.621254,99.347908 96.254051,99.288963 93.448952,99.307045 
	C90.849075,99.393150 88.687111,99.402222 86.257462,99.704025 
	C85.242783,100.018822 84.495789,100.040894 83.379562,100.120575 
	C81.294800,100.141983 79.579262,100.105774 77.437973,100.126335 
	C75.296852,100.146965 73.581482,100.110832 71.440216,100.129700 
	C69.298729,100.148598 67.583138,100.112503 65.441467,100.130020 
	C63.623619,100.147232 62.231831,100.110817 60.425117,100.128731 
	C58.904449,99.883469 57.798714,99.583885 56.352325,99.337662 
	C54.623177,99.336403 53.234680,99.281776 51.434017,99.303322 
	C48.979721,99.323837 46.937592,99.268188 44.462563,99.285553 
	C41.983284,99.302589 39.936905,99.246613 37.456841,99.262726 
	C35.306137,99.281662 33.589123,99.228500 31.447197,99.244316 
	C29.630796,99.261467 28.239311,99.209648 26.433784,99.222839 
	C25.518147,98.254471 25.016548,97.221092 24.758484,96.007088 
	C25.451090,95.830093 25.900166,95.833733 26.680553,95.771492 
	C27.765482,95.746964 28.519098,95.788322 29.645239,95.757217 
	C31.406828,95.767738 32.795891,95.850716 34.601135,95.886612 
	C37.042961,93.491379 39.068604,91.143227 41.234177,88.478638 
	C42.836990,86.317421 44.299877,84.472649 45.838844,82.309494 
	C46.967548,80.704765 48.020176,79.418434 49.171661,77.857513 
	C50.422115,76.234451 51.573715,74.885971 52.856625,73.237137 
	C53.436073,72.838562 53.884209,72.740334 54.673042,72.589966 
	C56.148987,73.600197 57.284225,74.662560 58.687759,75.925354 
	C59.918301,76.319550 61.358818,77.006531 61.757900,76.619553 
	C63.279808,75.143753 64.466003,73.321754 65.894043,71.316437 
	C67.246132,69.536606 68.481789,68.069412 69.820877,66.297607 
	C70.980087,64.741249 72.035873,63.489494 73.207245,61.969662 
	C74.842140,59.719215 76.361443,57.736847 77.953392,55.427994 
	C79.119347,54.689651 80.212654,54.277794 81.661705,53.868282 
	C84.127754,57.025597 86.159286,60.239498 88.429802,63.274624 
	C88.787369,63.752613 90.226784,63.421303 91.305527,63.206631 
	C94.558289,58.641193 97.671516,54.333321 101.015518,49.803726 
	C106.102760,45.301701 107.904480,39.981564 107.175987,33.548481 
	C106.823433,30.435133 107.206642,27.238466 107.359947,23.634663 
	C108.720894,23.040886 109.978615,22.891970 111.611328,22.665155 
	C113.057068,22.642483 114.127808,22.697710 115.594910,22.673069 
M113.220261,56.891094 
	C113.739372,55.698856 115.027946,54.065014 114.641861,53.392273 
	C113.124207,50.747829 111.079323,48.405968 108.964714,45.599422 
	C106.889061,48.269077 105.295532,50.318645 104.059563,51.908325 
	C106.272377,54.003811 107.996597,55.827076 109.949478,57.358814 
	C110.470795,57.767712 111.691559,57.284874 113.220261,56.891094 
z"/>
<path fill="#DAC980" opacity="1.000000" stroke="none" 
	d="
M119.011703,52.597664 
	C114.529892,47.293583 108.159599,42.370811 110.967026,33.112839 
	C113.516029,32.989536 116.255928,32.856998 119.432556,32.618935 
	C119.589760,39.067139 119.310219,45.620869 119.011703,52.597664 
z"/>
<path fill="#BDA05E" opacity="1.000000" stroke="none" 
	d="
M147.989471,95.441406 
	C146.260864,95.831505 144.536285,95.799110 142.398010,95.278397 
	C141.986069,92.888474 141.987793,90.986877 141.989532,89.085274 
	C141.816635,87.383636 141.702881,85.673302 141.454575,83.982750 
	C141.194717,82.213661 140.805511,80.463562 140.472824,78.705170 
	C141.128830,78.427635 141.784821,78.150101 142.440826,77.872566 
	C144.631546,80.982727 146.822266,84.092888 149.147629,87.518059 
	C148.852676,90.228348 148.423065,92.623627 147.989471,95.441406 
z"/>
<path fill="#F1E797" opacity="1.000000" stroke="none" 
	d="
M89.976341,87.155235 
	C92.501831,87.327721 93.667107,86.538673 91.996735,84.056221 
	C90.792976,82.267212 89.424332,80.589149 88.072891,78.185776 
	C88.735458,75.968620 89.454353,74.427284 90.173256,72.885956 
	C92.055779,72.619240 94.168121,72.803780 95.770767,71.987541 
	C98.692223,70.499626 100.991211,70.865608 103.063950,73.650230 
	C102.611610,77.306580 102.270798,80.362541 102.008301,83.425217 
	C101.660652,87.481255 101.374237,91.542542 101.061508,95.601578 
	C97.370605,95.660522 93.679695,95.719475 89.539688,95.556320 
	C89.090584,95.334229 89.054474,94.973305 89.295120,94.671410 
	C89.682625,91.964752 89.829483,89.559998 89.976341,87.155235 
z"/>
<path fill="#E3D387" opacity="1.000000" stroke="none" 
	d="
M114.969124,95.588867 
	C112.925652,95.649055 110.882187,95.709251 108.411263,95.242615 
	C107.951210,88.295731 107.918610,81.875687 107.886002,75.455643 
	C107.586960,74.240250 107.287918,73.024849 107.133835,71.216934 
	C107.513237,67.803963 107.747673,64.983528 107.982101,62.163086 
	C109.669678,61.779129 111.357246,61.395176 113.718262,61.112320 
	C114.926605,62.463352 115.461502,63.713291 115.996399,64.963226 
	C115.719986,65.654724 115.443581,66.346214 115.114891,67.838135 
	C115.031448,77.621994 115.000282,86.605431 114.969124,95.588867 
z"/>
<path fill="#E0D085" opacity="1.000000" stroke="none" 
	d="
M73.631744,67.814316 
	C75.376976,65.413780 77.122200,63.013241 79.480820,59.769001 
	C80.589195,66.207893 81.544418,71.757072 82.271942,77.814972 
	C81.701683,83.868240 81.359123,89.412788 80.587723,94.969505 
	C78.444252,94.967606 76.729614,94.953545 75.010941,94.474648 
	C75.004509,86.943512 75.087029,79.875427 74.937408,72.812256 
	C74.901932,71.137802 74.087730,69.479858 73.631744,67.814316 
z"/>
<path fill="#D5C078" opacity="1.000000" stroke="none" 
	d="
M122.217102,76.890533 
	C125.477356,81.013023 128.737625,85.135513 131.859253,89.799049 
	C131.131653,92.094597 130.542664,93.849098 129.953674,95.603592 
	C126.924637,95.660500 123.895592,95.717407 120.424652,95.251236 
	C120.727531,88.782280 121.472321,82.836403 122.217102,76.890533 
z"/>
<path fill="#DECC81" opacity="1.000000" stroke="none" 
	d="
M122.061646,76.584724 
	C121.472321,82.836403 120.727531,88.782280 119.976852,95.165375 
	C118.577705,95.655212 117.184464,95.707825 115.380173,95.674652 
	C115.000282,86.605431 115.031448,77.621994 115.101044,68.141312 
	C117.395050,70.522339 119.650620,73.400627 122.061646,76.584724 
z"/>
<path fill="#E9DE91" opacity="1.000000" stroke="none" 
	d="
M107.747536,61.875893 
	C107.747673,64.983528 107.513237,67.803963 106.976501,70.922440 
	C102.945847,65.067978 97.673027,67.819366 92.609108,69.366455 
	C92.378693,68.998802 92.148270,68.631142 91.917847,68.263481 
	C94.731850,64.584076 96.959122,60.118202 100.530426,57.453903 
	C103.876373,54.957710 106.620308,57.688820 107.747536,61.875893 
z"/>
<path fill="#D5C078" opacity="1.000000" stroke="none" 
	d="
M64.022720,87.343262 
	C64.391891,86.817154 65.202034,86.050201 65.065536,85.800278 
	C61.922565,80.045616 66.350868,76.830971 69.707581,73.304794 
	C70.468216,80.658852 70.751076,87.806328 70.592026,94.967148 
	C63.974285,94.932877 63.974285,94.932877 64.022720,87.343262 
z"/>
<path fill="#EBDE90" opacity="1.000000" stroke="none" 
	d="
M107.580498,75.513596 
	C107.918610,81.875687 107.951210,88.295731 107.980377,95.156097 
	C105.955162,95.655281 103.933372,95.714142 101.486542,95.687294 
	C101.374237,91.542542 101.660652,87.481255 102.008301,83.425217 
	C102.270798,80.362541 102.611610,77.306580 103.277527,73.956879 
	C104.849991,74.301270 106.062485,74.936409 107.580498,75.513596 
z"/>
<path fill="#C9AE67" opacity="1.000000" stroke="none" 
	d="
M49.876057,83.791298 
	C51.355667,81.752815 52.835274,79.714340 54.724476,77.111549 
	C56.419621,79.158173 57.624668,80.613083 58.884430,82.803055 
	C58.637039,87.559273 58.334938,91.580444 58.032837,95.601616 
	C55.999069,95.657082 53.965309,95.712547 51.479965,95.284302 
	C50.644276,91.130829 50.260166,87.461060 49.876057,83.791298 
z"/>
<path fill="#DDCA80" opacity="1.000000" stroke="none" 
	d="
M71.033936,94.953796 
	C70.751076,87.806328 70.468216,80.658852 69.991440,73.111725 
	C70.904366,71.201332 72.011200,69.690590 73.374886,67.997078 
	C74.087730,69.479858 74.901932,71.137802 74.937408,72.812256 
	C75.087029,79.875427 75.004509,86.943512 74.612122,94.490677 
	C73.156212,94.965637 72.095070,94.959717 71.033936,94.953796 
z"/>
<path fill="#D1B971" opacity="1.000000" stroke="none" 
	d="
M70.592026,94.967140 
	C72.095070,94.959717 73.156212,94.965637 74.616165,94.955521 
	C76.729614,94.953545 78.444252,94.967606 80.986046,94.982941 
	C82.877098,94.975433 83.940994,94.966644 85.408836,94.975662 
	C86.893349,94.986755 87.973907,94.980026 89.054474,94.973297 
	C89.054474,94.973305 89.090584,95.334229 89.084312,95.515427 
	C79.036827,95.717438 68.995613,95.738258 58.493614,95.680344 
	C58.334938,91.580444 58.637039,87.559273 59.019272,83.102196 
	C60.522713,84.138885 61.946014,85.611481 63.696022,87.213669 
	C63.974285,94.932877 63.974285,94.932877 70.592026,94.967140 
z"/>
<path fill="#DCCE86" opacity="1.000000" stroke="none" 
	d="
M112.905731,57.051262 
	C111.691559,57.284874 110.470795,57.767712 109.949478,57.358814 
	C107.996597,55.827076 106.272377,54.003811 104.059563,51.908325 
	C105.295532,50.318645 106.889061,48.269077 108.964714,45.599422 
	C111.079323,48.405968 113.124207,50.747829 114.641861,53.392273 
	C115.027946,54.065014 113.739372,55.698856 112.905731,57.051262 
z"/>
<path fill="#BAA061" opacity="1.000000" stroke="none" 
	d="
M49.597450,83.986496 
	C50.260166,87.461060 50.644276,91.130829 51.047729,95.221603 
	C48.027798,95.642616 44.988518,95.642616 40.748318,95.642616 
	C43.969551,91.335030 46.644199,87.758362 49.597450,83.986496 
z"/>
<path fill="#E7D88B" opacity="1.000000" stroke="none" 
	d="
M85.004890,94.957848 
	C83.940994,94.966644 82.877098,94.975433 81.414879,94.970779 
	C81.359123,89.412788 81.701683,83.868240 82.396812,78.177933 
	C83.794350,79.348282 84.839317,80.664375 85.926292,82.715126 
	C85.647163,87.285805 85.326027,91.121826 85.004890,94.957848 
z"/>
<path fill="#E9DE91" opacity="1.000000" stroke="none" 
	d="
M85.408836,94.975662 
	C85.326027,91.121826 85.647163,87.285805 86.050232,83.009079 
	C87.282471,83.916473 88.432777,85.264557 89.779709,86.883942 
	C89.829483,89.559998 89.682625,91.964752 89.295120,94.671402 
	C87.973907,94.980026 86.893349,94.986755 85.408836,94.975662 
z"/>
<path fill="#D9C57B" opacity="1.000000" stroke="none" 
	d="
M116.283340,65.150223 
	C115.461502,63.713291 114.926605,62.463352 114.082108,61.025177 
	C117.172958,57.727501 119.434700,58.853729 121.189903,62.680004 
	C121.782776,63.972439 122.878746,65.034088 123.841293,66.903381 
	C123.492165,68.712044 123.046524,69.818542 122.600891,70.925034 
	C120.590683,69.062431 118.580475,67.199821 116.283340,65.150223 
z"/>
<path fill="#E3D387" opacity="1.000000" stroke="none" 
	d="
M90.130768,72.532669 
	C89.454353,74.427284 88.735458,75.968620 87.940163,77.881561 
	C86.232368,73.894547 84.600967,69.535919 82.969566,65.177299 
	C83.629829,64.874626 84.290100,64.571960 84.950363,64.269287 
	C86.663002,66.905991 88.375641,69.542686 90.130768,72.532669 
z"/>
<path fill="#D1B971" opacity="1.000000" stroke="none" 
	d="
M122.710777,71.197037 
	C123.046524,69.818542 123.492165,68.712044 124.033890,67.174072 
	C126.497498,69.883682 128.865021,73.024757 131.030945,76.623978 
	C129.912918,77.378197 128.996490,77.674286 128.080078,77.970367 
	C126.326935,75.803261 124.573799,73.636147 122.710777,71.197037 
z"/>
<path fill="#CBB16B" opacity="1.000000" stroke="none" 
	d="
M128.195984,78.284302 
	C128.996490,77.674286 129.912918,77.378197 131.177444,76.944489 
	C133.260590,79.007851 134.995636,81.208855 136.801636,84.091812 
	C136.477737,85.727486 136.082870,86.681206 135.688019,87.634926 
	C133.229309,84.622688 130.770584,81.610458 128.195984,78.284302 
z"/>
<path fill="#C5A863" opacity="1.000000" stroke="none" 
	d="
M135.801697,87.923401 
	C136.082870,86.681206 136.477737,85.727486 136.931107,84.399414 
	C138.438919,85.653885 139.888214,87.282700 141.663513,88.998398 
	C141.987793,90.986877 141.986069,92.888474 141.976990,95.186554 
	C139.951538,93.125984 137.933441,90.668922 135.801697,87.923401 
z"/>
<path fill="#C4B376" opacity="1.000000" stroke="none" 
	d="
M130.350006,95.693237 
	C130.542664,93.849098 131.131653,92.094597 131.999054,90.114197 
	C133.684967,91.612717 135.092468,93.337135 137.088745,95.782890 
	C134.265717,95.782890 132.506027,95.782890 130.350006,95.693237 
z"/>
</svg>